<?xml version="1.0" encoding="iso-8859-1"?>
<!-- Generator: Adobe Illustrator 19.0.0, SVG Export Plug-In . SVG Version: 6.00 Build 0)  -->
<svg version="1.1" id="Layer_1" xmlns="http://www.w3.org/2000/svg" xmlns:xlink="http://www.w3.org/1999/xlink" x="0px" y="0px"
	 viewBox="0 0 472.615 472.615" style="enable-background:new 0 0 472.615 472.615;" xml:space="preserve">
<g>
	<g>
		<path d="M0,354.462v33.575l45.194,45.194h382.228l45.194-45.194v-33.575H0z M206.769,403.66h-19.692v-19.692h19.692V403.66z
			 M246.154,403.66h-19.692v-19.692h19.692V403.66z M285.538,403.66h-19.692v-19.692h19.692V403.66z"/>
	</g>
</g>
<g>
	<g>
		<polygon points="226.596,157.506 216.75,216.583 246.019,216.583 255.865,157.506 		"/>
	</g>
</g>
<g>
	<g>
		<path d="M19.692,39.385v295.385h433.231V39.385H19.692z M147.692,118.121c-10.86,0-19.692,8.837-19.692,19.692v19.692
			c0,11.82-5.341,22.315-13.609,29.538c8.269,7.224,13.609,17.719,13.609,29.538v19.692c0,10.856,8.832,19.692,19.692,19.692v19.692
			c-21.717,0-39.385-17.663-39.385-39.385v-19.692c0-10.855-8.832-19.692-19.692-19.692v-19.692c10.86,0,19.692-8.836,19.692-19.692
			v-19.692c0-21.721,17.668-39.385,39.385-39.385V118.121z M305.231,157.506h-29.404l-9.846,59.077h39.25v19.692h-42.531l-6.834,41
			l-19.423-3.231l6.295-37.77h-29.269l-6.834,41l-19.423-3.231l6.295-37.77h-26.122v-19.692h29.404l9.846-59.077h-39.25v-19.692
			h42.531l6.834-40.999l19.422,3.231l-6.295,37.769h29.269l6.834-40.999l19.422,3.231l-6.295,37.769h26.122V157.506z M384,196.891
			c-10.86,0-19.692,8.837-19.692,19.692v19.692c0,21.722-17.668,39.385-39.385,39.385v-19.692c10.86,0,19.692-8.836,19.692-19.692
			v-19.692c0-11.819,5.341-22.314,13.609-29.538c-8.269-7.223-13.609-17.718-13.609-29.538v-19.692
			c0-10.855-8.832-19.692-19.692-19.692V98.429c21.717,0,39.385,17.664,39.385,39.385v19.692c0,10.856,8.832,19.692,19.692,19.692
			V196.891z"/>
	</g>
</g>
<g>
</g>
<g>
</g>
<g>
</g>
<g>
</g>
<g>
</g>
<g>
</g>
<g>
</g>
<g>
</g>
<g>
</g>
<g>
</g>
<g>
</g>
<g>
</g>
<g>
</g>
<g>
</g>
<g>
</g>
</svg>
